<svg width="436" height="593" viewBox="0 0 436 593" fill="none" xmlns="http://www.w3.org/2000/svg">
<g id="Group 17">
<path id="Path 3" fill-rule="evenodd" clip-rule="evenodd" d="M341.639 -24.6746C265.936 -48.3683 188.096 -87.8875 108.404 -15.7051C28.7114 56.4773 -21.3904 119.709 10.9639 201.522C43.3182 283.336 175.386 232.377 213.758 305.499C252.131 378.621 167.817 444.984 204.167 510.062C240.516 575.14 268.466 616.849 385.282 575.471C502.098 534.092 491.327 428.807 580.16 367.153C668.993 305.499 765.104 213.2 633.206 48.5062C501.309 -116.188 417.341 -0.98094 341.639 -24.6746Z" stroke="#96A9C6"/>
<path id="Path 3 Copy" fill-rule="evenodd" clip-rule="evenodd" d="M351.105 13.2488C289.522 -5.99092 226.2 -38.0812 161.371 20.5323C96.5429 79.1457 55.7857 130.491 82.1055 196.925C108.425 263.359 215.86 221.98 247.076 281.356C278.292 340.732 209.704 394.621 239.274 447.465C268.843 500.31 291.58 534.178 386.608 500.578C481.636 466.978 472.875 381.484 545.139 331.42C617.403 281.356 695.588 206.408 588.291 72.673C480.994 -61.0617 412.688 32.4885 351.105 13.2488Z" stroke="#96A9C6"/>
<path id="Path 3 Copy 2" fill-rule="evenodd" clip-rule="evenodd" d="M368.812 38.4174C318.85 22.719 267.478 -3.46473 214.883 44.3603C162.289 92.1853 129.223 134.08 150.576 188.286C171.929 242.492 259.09 208.729 284.414 257.176C309.739 305.624 254.095 349.594 278.084 392.712C302.074 435.829 320.52 463.464 397.615 436.048C474.71 408.633 467.602 338.875 526.229 298.026C584.856 257.176 648.287 196.023 561.238 86.9039C474.189 -22.2154 418.773 54.1159 368.812 38.4174Z" stroke="#96A9C6"/>
<path id="Path 3 Copy 5" fill-rule="evenodd" clip-rule="evenodd" d="M387.316 69.1837C347.021 56.5885 305.588 35.5806 263.169 73.9519C220.75 112.323 194.082 145.936 211.304 189.427C228.525 232.918 298.822 205.829 319.247 244.7C339.672 283.57 294.794 318.848 314.142 353.443C333.49 388.038 348.367 410.21 410.546 388.213C472.725 366.217 466.992 310.248 514.276 277.474C561.56 244.7 612.718 195.635 542.512 108.086C472.305 20.5365 427.611 81.779 387.316 69.1837Z" stroke="#96A9C6"/>
<path id="Path 3 Copy 4" fill-rule="evenodd" clip-rule="evenodd" d="M392.083 89.0458C359.173 78.7506 325.334 61.5789 290.69 92.9433C256.047 124.308 234.266 151.783 248.332 187.332C262.397 222.881 319.809 200.739 336.49 232.511C353.172 264.283 316.519 293.12 332.321 321.397C348.123 349.674 360.273 367.797 411.055 349.818C461.837 331.838 457.155 286.09 495.773 259.301C534.39 232.511 576.171 192.406 518.833 120.844C461.494 49.282 424.992 99.3411 392.083 89.0458Z" stroke="#96A9C6"/>
<path id="Path 3 Copy 3" fill-rule="evenodd" clip-rule="evenodd" d="M401.225 103.406C374.507 95.0457 347.034 81.1013 318.907 106.571C290.78 132.041 273.097 154.352 284.517 183.22C295.936 212.088 342.548 194.107 356.091 219.908C369.635 245.709 339.877 269.125 352.706 292.088C365.535 315.051 375.4 329.768 416.629 315.168C457.858 300.567 454.057 263.417 485.409 241.663C516.762 219.908 550.684 187.34 504.132 129.228C457.579 71.1155 427.944 111.766 401.225 103.406Z" stroke="#96A9C6"/>
</g>
</svg>
